<svg width="24" height="24" viewBox="0 0 24 24" fill="none" xmlns="http://www.w3.org/2000/svg">
<path d="M18.6344 6.63434C18.9468 6.32192 19.4533 6.32192 19.7657 6.63434C20.0782 6.94676 20.0782 7.45329 19.7657 7.76571L10.1657 17.3657C9.85331 17.6781 9.34678 17.6781 9.03436 17.3657L5.03436 13.3657C4.72194 13.0533 4.72194 12.5468 5.03436 12.2343C5.34678 11.9219 5.85331 11.9219 6.16573 12.2343L9.60005 15.6687L18.6344 6.63434Z" fill="black"/>
<mask id="mask0_14312_4313" style="mask-type:luminance" maskUnits="userSpaceOnUse" x="4" y="6" width="16" height="12">
<path d="M18.6344 6.63434C18.9468 6.32192 19.4533 6.32192 19.7657 6.63434C20.0782 6.94676 20.0782 7.45329 19.7657 7.76571L10.1657 17.3657C9.85331 17.6781 9.34678 17.6781 9.03436 17.3657L5.03436 13.3657C4.72194 13.0533 4.72194 12.5468 5.03436 12.2343C5.34678 11.9219 5.85331 11.9219 6.16573 12.2343L9.60005 15.6687L18.6344 6.63434Z" fill="white"/>
</mask>
<g mask="url(#mask0_14312_4313)">
<rect width="24" height="24" fill="#0880AE"/>
</g>
</svg>
