<svg width="24" height="24" viewBox="0 0 24 24" fill="none" xmlns="http://www.w3.org/2000/svg">
<path d="M6.4001 12.8C5.95827 12.8 5.6001 12.4418 5.6001 12C5.6001 11.5581 5.95827 11.2 6.4001 11.2H17.6001C18.0419 11.2 18.4001 11.5581 18.4001 12C18.4001 12.4418 18.0419 12.8 17.6001 12.8H6.4001Z" fill="black"/>
<mask id="mask0_14317_4178" style="mask-type:luminance" maskUnits="userSpaceOnUse" x="5" y="11" width="14" height="2">
<path d="M6.4001 12.8C5.95827 12.8 5.6001 12.4418 5.6001 12C5.6001 11.5581 5.95827 11.2 6.4001 11.2H17.6001C18.0419 11.2 18.4001 11.5581 18.4001 12C18.4001 12.4418 18.0419 12.8 17.6001 12.8H6.4001Z" fill="white"/>
</mask>
<g mask="url(#mask0_14317_4178)">
<rect width="24" height="24" fill="#0880AE"/>
</g>
</svg>
